<svg width="720" height="300" version="1.1" viewBox="0 0 190.5 79.375" xmlns="http://www.w3.org/2000/svg">
<g transform="translate(0 -150.81)">
<g transform="translate(16.632 -1.5145)" fill="#fff">
<g transform="matrix(1.44 0 0 1.44 -490.39 44.116)" stroke="#000" stroke-width=".18374px">
<g transform="translate(22.991 26.318)" stroke-width=".18374px">
<g transform="matrix(1 0 0 1 -.00072569 -.00014063)" stroke-width=".18374px">
<g transform="scale(.96598 1.0352)" fill="#fff" stroke="none" stroke-width=".18374px" aria-label="Tow- Boot">
<path d="m342.07 63.995h-2.5534v-2.6004h8.1771v2.6004h-2.5691v8.9917h-3.0547z"/>
<path d="m350.97 73.159q-1.9581 0-2.945-1.1122-0.98689-1.1122-0.98689-3.2896t0.98689-3.274q0.9869-1.1122 2.945-1.1122 1.9581 0 2.945 1.1122 0.9869 1.0966 0.9869 3.274t-0.9869 3.2896q-0.98689 1.1122-2.945 1.1122zm0-2.2401q0.3133 0 0.50128-0.06266 0.18798-0.07833 0.28197-0.3133 0.10966-0.23498 0.14099-0.65793 0.0313-0.42296 0.0313-1.1279t-0.0313-1.1279-0.14099-0.64226q-0.094-0.23498-0.28197-0.29764-0.18798-0.07833-0.50128-0.07833t-0.50128 0.07833q-0.18798 0.06266-0.29763 0.29764-0.094 0.21931-0.12532 0.64226-0.0313 0.42296-0.0313 1.1279t0.0313 1.1279 0.12532 0.65793q0.10965 0.23498 0.29763 0.3133 0.18798 0.06266 0.50128 0.06266z"/>
<path d="m355.37 64.59v-0.06266h2.6787l0.48561 4.6212 0.094 0.86158h0.20365l0.10965-0.86158 0.73626-4.6212h2.8667l0.73626 4.6212 0.10965 0.86158h0.20365l0.094-0.86158 0.48561-4.6212h2.6787v0.06266l-1.5038 8.3964h-3.3523l-0.70493-4.3235-0.0783-0.86158h-0.20365l-0.0783 0.86158-0.70493 4.3235h-3.3523z"/>
<path d="m367.7 67.52h5.2948v2.1618h-5.2948z"/>
<path d="m344.76 86.682q-0.75192 0-1.5352-0.06266-0.76758-0.04699-1.5195-0.17232v-11.435q1.9894-0.23498 3.3053-0.23498 2.4907 0 3.6186 0.79892 1.1435 0.79892 1.1435 2.5377 0 1.9425-1.6605 2.4124v0.06266q1.9425 0.43862 1.9425 2.7257 0 3.368-5.2948 3.368zm0.53261-2.3184q0.79892 0 1.2062-0.3133 0.42295-0.3133 0.42295-0.90857 0-0.73626-0.36029-1.0182-0.3603-0.29764-1.3002-0.29764h-0.76758v2.4751q0.14098 0.03133 0.3133 0.04699 0.17231 0.01566 0.48561 0.01566zm-0.047-4.7308q0.78325 0 1.0809-0.28197 0.3133-0.28197 0.3133-1.0339 0-1.2219-1.2845-1.2219-0.17231 0-0.39162 0.03133-0.20365 0.01566-0.46995 0.04699v2.4594z"/>
<path d="m354.69 86.697q-1.9581 0-2.945-1.1122-0.9869-1.1122-0.9869-3.2896t0.9869-3.274q0.98689-1.1122 2.945-1.1122 1.9581 0 2.945 1.1122 0.98689 1.0966 0.98689 3.274t-0.98689 3.2896q-0.9869 1.1122-2.945 1.1122zm0-2.2401q0.3133 0 0.50128-0.06266 0.18798-0.07832 0.28197-0.3133 0.10965-0.23498 0.14098-0.65793 0.0313-0.42296 0.0313-1.1279t-0.0313-1.1279-0.14098-0.64226q-0.094-0.23498-0.28197-0.29764-0.18798-0.07833-0.50128-0.07833t-0.50128 0.07833q-0.18798 0.06266-0.29764 0.29764-0.094 0.21931-0.12532 0.64226-0.0313 0.42296-0.0313 1.1279t0.0313 1.1279 0.12532 0.65793q0.10966 0.23498 0.29764 0.3133 0.18798 0.06266 0.50128 0.06266z"/>
<path d="m363.28 86.697q-1.9581 0-2.945-1.1122-0.98689-1.1122-0.98689-3.2896t0.98689-3.274q0.9869-1.1122 2.945-1.1122 1.9581 0 2.945 1.1122 0.9869 1.0966 0.9869 3.274t-0.9869 3.2896q-0.98689 1.1122-2.945 1.1122zm0-2.2401q0.3133 0 0.50128-0.06266 0.18798-0.07832 0.28197-0.3133 0.10966-0.23498 0.14099-0.65793 0.0313-0.42296 0.0313-1.1279t-0.0313-1.1279-0.14099-0.64226q-0.094-0.23498-0.28197-0.29764-0.18798-0.07833-0.50128-0.07833t-0.50128 0.07833q-0.18798 0.06266-0.29763 0.29764-0.094 0.21931-0.12532 0.64226-0.0313 0.42296-0.0313 1.1279t0.0313 1.1279 0.12532 0.65793q0.10965 0.23498 0.29763 0.3133 0.18798 0.06266 0.50128 0.06266z"/>
<path d="m371.79 86.635q-1.4412 0-2.1931-0.6266-0.73625-0.64226-0.73625-1.8485v-3.6186h-1.1436v-2.4751h1.3159l0.39163-2.5377 2.3967-0.28197v2.8197h1.4568v2.4751h-1.4412v2.851q0 0.61094 0.17231 0.84591 0.18798 0.21931 0.56394 0.21931 0.3133 0 0.73626-0.10966v2.1148q-0.65793 0.17232-1.5195 0.17232z"/>
</g>
<rect x="371.49" y="65.806" width="1.3229" height="21.167" color="#000000" fill="#fff" stroke="none"/>
<path d="m372.15 76.389" fill="none" stroke="#000" stroke-width=".18374px"/>
</g>
</g>
</g>
<g stroke-width=".26458" aria-label="  Installer Interface ">
<path d="m99.588 181.92h2.745v10.417h-2.745z"/>
<path d="m103.63 184.73h2.2523l0.14077 0.81646h0.0563q0.47862-0.29562 0.81647-0.47862 0.33784-0.19707 0.60531-0.29561 0.26746-0.11262 0.50677-0.14077 0.23931-0.0422 0.53493-0.0422 0.78831 0 1.2669 0.56308 0.49269 0.56308 0.49269 1.4781v5.7012h-2.6746v-4.7158q0-0.39416-0.15485-0.549-0.14077-0.16893-0.366-0.16893-0.183 0-0.39415 0.0845-0.19708 0.0845-0.40824 0.19707v5.1522h-2.6746z"/>
<path d="m113.66 192.46q-0.59123 0-1.2106-0.11262-0.61939-0.11261-1.1543-0.30969v-1.9286q0.45047 0.19708 1.098 0.32377 0.64754 0.11262 1.2247 0.11262 0.74608 0 0.74608-0.42231 0-0.39416-0.71793-0.47862-0.33784-0.0422-0.74608-0.11262-0.40823-0.0704-0.77423-0.30969-0.35193-0.23931-0.59124-0.70385-0.23931-0.47862-0.23931-1.3232 0-1.2528 0.70385-1.9145 0.70385-0.6757 2.0412-0.6757 0.53493 0 1.1825 0.0845 0.66162 0.0845 1.2388 0.22524v1.9286q-0.35192-0.0845-0.61938-0.1267-0.25339-0.0563-0.46455-0.0845-0.21115-0.0282-0.39415-0.0422-0.16893-0.0141-0.35193-0.0141-0.87277 0-0.87277 0.4927 0 0.42231 0.60531 0.47862 0.35193 0.0422 0.78831 0.12669 0.43639 0.0704 0.81647 0.30969 0.39415 0.23931 0.66162 0.70385 0.26746 0.45047 0.26746 1.2388 0 1.2388-0.83054 1.8863-0.83055 0.64754-2.4072 0.64754z"/>
<path d="m120.96 192.43q-1.2951 0-1.9708-0.56308-0.66161-0.57715-0.66161-1.6611v-3.2518h-1.0276v-2.2242h1.1825l0.35193-2.2805 2.1538-0.25338v2.5339h1.3092v2.2242h-1.2951v2.562q0 0.549 0.15484 0.76015 0.16893 0.19708 0.50677 0.19708 0.28154 0 0.66162-0.0985v1.9004q-0.59123 0.15484-1.3655 0.15484z"/>
<path d="m125 192.4q-0.4927 0-0.90093-0.16892-0.39415-0.183-0.68977-0.4927-0.28154-0.30969-0.45047-0.732-0.15484-0.43639-0.15484-0.95724 0-2.2382 2.7591-2.4072l1.2528-0.0704q-0.0141-0.32377-0.0704-0.52085-0.0422-0.19708-0.16893-0.29562-0.11261-0.11261-0.32377-0.14077-0.19708-0.0422-0.53492-0.0422-0.15485 0-0.43639 0.0282-0.28154 0.0141-0.60531 0.0422t-0.61939 0.0704q-0.29562 0.0282-0.46454 0.0563l-0.15485-1.9004q0.6757-0.11262 1.3514-0.18301 0.68978-0.0704 1.3514-0.0704 1.7737 0 2.562 0.57716 0.78831 0.57715 0.78831 1.8582v5.2789h-2.2101l-0.183-0.91501h-0.14077q-0.32377 0.45046-0.84462 0.71793-0.52085 0.26746-1.1121 0.26746zm1.0276-1.9145q0.15485 0 0.366-0.0845 0.22523-0.0845 0.42231-0.22524v-1.0558l-0.66162 0.0704q-0.38008 0.0422-0.549 0.19708-0.15485 0.14077-0.15485 0.42231 0 0.32377 0.14077 0.50677 0.15485 0.16893 0.43639 0.16893z"/>
<path d="m130.63 180.96h2.6746v11.374h-2.6746z"/>
<path d="m134.48 180.96h2.6746v11.374h-2.6746z"/>
<path d="m141.65 192.46q-3.5756 0-3.5756-3.8712 0-3.9838 3.5896-3.9838 1.5626 0 2.2664 0.88685 0.71793 0.88685 0.71793 2.8295 0 0.43639-0.0141 0.64754-0.0141 0.21116-0.0563 0.45047h-3.8289q0.0281 0.33784 0.0845 0.549 0.0704 0.21115 0.183 0.32377 0.1267 0.11262 0.32377 0.15485 0.19708 0.0282 0.47862 0.0282 0.39416 0 1.0698-0.0985 0.6757-0.11261 1.4499-0.28154l0.0704 1.9286q-0.28154 0.0985-0.61939 0.183-0.33785 0.0704-0.70385 0.1267t-0.74608 0.0845q-0.366 0.0422-0.68977 0.0422zm-0.0704-5.8983q-0.40823 0-0.60531 0.26746-0.183 0.26746-0.22523 0.99947h1.5626q-0.0282-0.70385-0.183-0.98539-0.15485-0.28154-0.54901-0.28154z"/>
<path d="m145.58 184.73h2.2523l0.14077 1.1825h0.11262q0.0141-0.0845 0.21115-0.25338 0.21116-0.183 0.4927-0.38008t0.59123-0.38008q0.32377-0.183 0.57716-0.29562h0.47862v2.4635h-1.0839q-0.12669 0.0141-0.29562 0.0845-0.16892 0.0563-0.33785 0.14077-0.15484 0.0845-0.29561 0.183-0.1267 0.0985-0.16893 0.16892v4.6876h-2.6746z"/>
<path d="m94.943 195.49h2.745v10.417h-2.745z"/>
<path d="m98.983 198.3h2.2523l0.14077 0.81647h0.0563q0.47862-0.29562 0.81647-0.47862 0.33785-0.19708 0.60531-0.29562 0.26746-0.11261 0.50677-0.14077 0.23931-0.0422 0.53493-0.0422 0.78831 0 1.2669 0.56308 0.49269 0.56308 0.49269 1.4781v5.7012h-2.6746v-4.7158q0-0.39416-0.15485-0.54901-0.14077-0.16892-0.366-0.16892-0.183 0-0.39415 0.0845-0.19708 0.0845-0.40824 0.19708v5.1522h-2.6746z"/>
<path d="m110 206q-1.2951 0-1.9708-0.56308-0.66162-0.57716-0.66162-1.6611v-3.2518h-1.0276v-2.2242h1.1825l0.35192-2.2805 2.1538-0.25339v2.5339h1.3092v2.2242h-1.2951v2.562q0 0.54901 0.15485 0.76016 0.16892 0.19708 0.50677 0.19708 0.28154 0 0.66162-0.0985v1.9004q-0.59123 0.15485-1.3655 0.15485z"/>
<path d="m115.55 206.03q-3.5756 0-3.5756-3.8712 0-3.9838 3.5896-3.9838 1.5626 0 2.2664 0.88685 0.71793 0.88685 0.71793 2.8295 0 0.43638-0.0141 0.64754-0.0141 0.21115-0.0563 0.45046h-3.8289q0.0281 0.33785 0.0845 0.54901 0.0704 0.21115 0.183 0.32377 0.12669 0.11261 0.32377 0.15484 0.19708 0.0282 0.47862 0.0282 0.39416 0 1.0698-0.0985 0.6757-0.11262 1.4499-0.28154l0.0704 1.9286q-0.28154 0.0985-0.61939 0.183-0.33785 0.0704-0.70385 0.12669-0.366 0.0563-0.74608 0.0845-0.366 0.0422-0.68977 0.0422zm-0.0704-5.8983q-0.40823 0-0.60531 0.26747-0.183 0.26746-0.22523 0.99946h1.5625q-0.0282-0.70385-0.183-0.98539-0.15484-0.28154-0.549-0.28154z"/>
<path d="m119.48 198.3h2.2523l0.14077 1.1825h0.11261q0.0141-0.0845 0.21116-0.25339 0.21115-0.183 0.49269-0.38007 0.28154-0.19708 0.59124-0.38008 0.32377-0.183 0.57715-0.29562h0.47862v2.4635h-1.0839q-0.12669 0.0141-0.29561 0.0845-0.16893 0.0563-0.33785 0.14077-0.15485 0.0845-0.29562 0.183-0.12669 0.0985-0.16892 0.16892v4.6876h-2.6746z"/>
<path d="m125.63 200.53h-1.0135v-2.2242h1.0276v-0.32377q0-0.98539 0.21116-1.647 0.22523-0.67569 0.732-1.098 0.52085-0.42231 1.3514-0.60531 0.84462-0.19708 2.0834-0.22524l0.16892 1.9989q-0.56308 0.0281-0.92908 0.11261-0.366 0.0704-0.57716 0.22524-0.21115 0.15484-0.29561 0.40823-0.0845 0.23931-0.0845 0.60531v0.549h1.5626v2.2242h-1.5626v5.3774h-2.6746z"/>
<path d="m132.25 205.98q-0.4927 0-0.90093-0.16893-0.39415-0.183-0.68977-0.49269-0.28154-0.3097-0.45047-0.73201-0.15484-0.43638-0.15484-0.95723 0-2.2382 2.7591-2.4072l1.2528-0.0704q-0.0141-0.32377-0.0704-0.52085-0.0422-0.19708-0.16893-0.29562-0.11261-0.11262-0.32377-0.14077-0.19708-0.0422-0.53492-0.0422-0.15485 0-0.43639 0.0282-0.28154 0.0141-0.60531 0.0422-0.32377 0.0282-0.61939 0.0704-0.29562 0.0282-0.46454 0.0563l-0.15485-1.9004q0.6757-0.11261 1.3514-0.183 0.68978-0.0704 1.3514-0.0704 1.7737 0 2.562 0.57715 0.78831 0.57716 0.78831 1.8582v5.2789h-2.2101l-0.183-0.915h-0.14077q-0.32377 0.45046-0.84462 0.71792-0.52085 0.26747-1.1121 0.26747zm1.0276-1.9145q0.15485 0 0.366-0.0845 0.22523-0.0845 0.42231-0.22523v-1.0557l-0.66162 0.0704q-0.38008 0.0422-0.549 0.19708-0.15485 0.14077-0.15485 0.42231 0 0.32377 0.14077 0.50677 0.15485 0.16893 0.43639 0.16893z"/>
<path d="m141.52 206.03q-1.9708 0-2.9421-0.92909-0.97131-0.94316-0.97131-2.9984t0.97131-2.9843q0.97131-0.94316 2.9421-0.94316 0.42231 0 0.81647 0.0704 0.39415 0.0563 0.67569 0.16893v2.0552q-0.68977-0.15485-1.1825-0.15485-0.83055 0-1.1684 0.39416-0.32377 0.39416-0.32377 1.3655 0 0.98539 0.32377 1.4077 0.33785 0.42231 1.1402 0.42231 0.33785 0 0.63347-0.0282 0.29561-0.0422 0.57715-0.12669v2.0412q-0.28154 0.11261-0.67569 0.16892-0.39416 0.0704-0.81647 0.0704z"/>
<path d="m147.22 206.03q-3.5756 0-3.5756-3.8712 0-3.9838 3.5896-3.9838 1.5625 0 2.2664 0.88685 0.71793 0.88685 0.71793 2.8295 0 0.43638-0.0141 0.64754-0.0141 0.21115-0.0563 0.45046h-3.829q0.0282 0.33785 0.0845 0.54901 0.0704 0.21115 0.18301 0.32377 0.12669 0.11261 0.32377 0.15484 0.19707 0.0282 0.47861 0.0282 0.39416 0 1.0699-0.0985 0.67569-0.11262 1.4499-0.28154l0.0704 1.9286q-0.28154 0.0985-0.61939 0.183-0.33784 0.0704-0.70385 0.12669-0.366 0.0563-0.74608 0.0845-0.366 0.0422-0.68977 0.0422zm-0.0704-5.8983q-0.40824 0-0.60532 0.26747-0.183 0.26746-0.22523 0.99946h1.5626q-0.0282-0.70385-0.183-0.98539-0.15485-0.28154-0.549-0.28154z"/>
</g>
</g>
<rect x="1.5099e-14" y="150.81" width="190.5" height="79.375" fill-opacity="0" stroke-linejoin="round" stroke-width="3.175" style="paint-order:stroke fill markers"/>
</g>
</svg>
