<?xml version="1.0" encoding="UTF-8"?>
<svg width="242.73" height="46.642" version="1.1" viewBox="0 0 64.221 12.34" xmlns="http://www.w3.org/2000/svg" xmlns:cc="http://creativecommons.org/ns#" xmlns:dc="http://purl.org/dc/elements/1.1/" xmlns:rdf="http://www.w3.org/1999/02/22-rdf-syntax-ns#">
 <metadata>
  <rdf:RDF>
   <cc:Work rdf:about="">
    <dc:format>image/svg+xml</dc:format>
    <dc:type rdf:resource="http://purl.org/dc/dcmitype/StillImage"/>
    <dc:title/>
   </cc:Work>
  </rdf:RDF>
 </metadata>
 <g transform="translate(-350.82 -96.8)">
  <text fill="none" font-family="sans-serif" font-size="2.8046px" letter-spacing="0px" stroke="#000000" stroke-width=".26458px" text-align="center" word-spacing="0px" style="line-height:6.61458px;shape-inside:url(#rect106);white-space:pre" xml:space="preserve"/>
  <g transform="translate(22.991,26.318)">
   <g transform="matrix(.96598 0 0 1.0352 1.1676 -1.3669)" fill="#fff" stroke-width=".26458px" aria-label="Tow-Boot">
    <path d="m340.72 72.163h-2.5534v-2.6004h8.1771v2.6004h-2.5691v8.9917h-3.0547z"/>
    <path d="m349.62 81.327q-1.9581 0-2.945-1.1122t-0.9869-3.2896 0.9869-3.274q0.98689-1.1122 2.945-1.1122 1.9581 0 2.945 1.1122 0.98689 1.0966 0.98689 3.274t-0.98689 3.2896q-0.9869 1.1122-2.945 1.1122zm0-2.2401q0.3133 0 0.50128-0.06266 0.18798-0.07832 0.28197-0.3133 0.10965-0.23498 0.14098-0.65793 0.0313-0.42296 0.0313-1.1279t-0.0313-1.1279-0.14098-0.64226q-0.094-0.23498-0.28197-0.29764-0.18798-0.07832-0.50128-0.07832t-0.50128 0.07832q-0.18798 0.06266-0.29764 0.29764-0.094 0.21931-0.12532 0.64226-0.0313 0.42296-0.0313 1.1279t0.0313 1.1279 0.12532 0.65793q0.10966 0.23498 0.29764 0.3133 0.18798 0.06266 0.50128 0.06266z"/>
    <path d="m354.02 72.758v-0.06266h2.6787l0.48562 4.6212 0.094 0.86158h0.20364l0.10966-0.86158 0.73625-4.6212h2.8667l0.73625 4.6212 0.10966 0.86158h0.20364l0.094-0.86158 0.48562-4.6212h2.6787v0.06266l-1.5038 8.3964h-3.3523l-0.70492-4.3235-0.0783-0.86158h-0.20364l-0.0783 0.86158-0.70492 4.3235h-3.3523z"/>
    <path d="m366.35 75.688h5.2948v2.1618h-5.2948z"/>
    <path d="m376.11 81.311q-0.75192 0-1.5352-0.06266-0.76758-0.047-1.5195-0.17232v-11.435q1.9894-0.23498 3.3053-0.23498 2.4907 0 3.6186 0.79892 1.1435 0.79892 1.1435 2.5377 0 1.9425-1.6605 2.4124v0.06266q1.9425 0.43862 1.9425 2.7257 0 3.368-5.2948 3.368zm0.53261-2.3184q0.79892 0 1.2062-0.3133 0.42295-0.3133 0.42295-0.90857 0-0.73626-0.36029-1.0182-0.3603-0.29764-1.3002-0.29764h-0.76758v2.4751q0.14098 0.03133 0.3133 0.04699 0.17231 0.01566 0.48561 0.01566zm-0.047-4.7308q0.78325 0 1.0809-0.28197 0.3133-0.28197 0.3133-1.0339 0-1.2219-1.2845-1.2219-0.17231 0-0.39162 0.03133-0.20365 0.01566-0.46995 0.04699v2.4594z"/>
    <path d="m386.04 81.327q-1.9581 0-2.945-1.1122-0.98689-1.1122-0.98689-3.2896t0.98689-3.274q0.9869-1.1122 2.945-1.1122t2.945 1.1122q0.9869 1.0966 0.9869 3.274t-0.9869 3.2896q-0.98689 1.1122-2.945 1.1122zm0-2.2401q0.3133 0 0.50128-0.06266 0.18798-0.07832 0.28197-0.3133 0.10966-0.23498 0.14099-0.65793 0.0313-0.42296 0.0313-1.1279t-0.0313-1.1279-0.14099-0.64226q-0.094-0.23498-0.28197-0.29764-0.18798-0.07832-0.50128-0.07832t-0.50128 0.07832q-0.18798 0.06266-0.29763 0.29764-0.094 0.21931-0.12532 0.64226-0.0313 0.42296-0.0313 1.1279t0.0313 1.1279 0.12532 0.65793q0.10965 0.23498 0.29763 0.3133 0.18798 0.06266 0.50128 0.06266z"/>
    <path d="m394.63 81.327q-1.9581 0-2.945-1.1122t-0.9869-3.2896 0.9869-3.274q0.98689-1.1122 2.945-1.1122 1.9581 0 2.945 1.1122 0.98689 1.0966 0.98689 3.274t-0.98689 3.2896q-0.9869 1.1122-2.945 1.1122zm0-2.2401q0.3133 0 0.50128-0.06266 0.18798-0.07832 0.28197-0.3133 0.10965-0.23498 0.14098-0.65793 0.0313-0.42296 0.0313-1.1279t-0.0313-1.1279-0.14098-0.64226q-0.094-0.23498-0.28197-0.29764-0.18798-0.07832-0.50128-0.07832t-0.50128 0.07832q-0.18798 0.06266-0.29764 0.29764-0.094 0.21931-0.12532 0.64226-0.0313 0.42296-0.0313 1.1279t0.0313 1.1279 0.12532 0.65793q0.10966 0.23498 0.29764 0.3133 0.18798 0.06266 0.50128 0.06266z"/>
    <path d="m403.13 81.264q-1.4412 0-2.1931-0.6266-0.73625-0.64226-0.73625-1.8485v-3.6186h-1.1436v-2.4751h1.3159l0.39163-2.5377 2.3967-0.28197v2.8197h1.4568v2.4751h-1.4412v2.851q0 0.61094 0.17231 0.84591 0.18798 0.21931 0.56394 0.21931 0.3133 0 0.73626-0.10966v2.1148q-0.65793 0.17232-1.5195 0.17232z"/>
   </g>
  </g>
 </g>
</svg>
